HIERARCHY
ROOT Hips
{
 OFFSET 0.000000 0.000000 0.000000
 CHANNELS 6 Xposition Yposition Zposition Yrotation Xrotation Zrotation
 JOINT Chest
 {
  OFFSET 0.000000 9.585900 0.002600
  CHANNELS 3 Yrotation Xrotation Zrotation
  JOINT Chest2
  {
   OFFSET 0.000000 9.601200 -0.005300
   CHANNELS 3 Yrotation Xrotation Zrotation
   JOINT Chest3
   {
    OFFSET 0.000000 9.561800 0.000000
    CHANNELS 3 Yrotation Xrotation Zrotation
    JOINT Chest4
    {
     OFFSET 0.000000 9.552100 0.000000
     CHANNELS 3 Yrotation Xrotation Zrotation
     JOINT Neck
     {
      OFFSET 0.000000 14.453000 0.000000
      CHANNELS 3 Yrotation Xrotation Zrotation
      JOINT Head
      {
       OFFSET 0.000000 8.936500 -0.011300
       CHANNELS 3 Yrotation Xrotation Zrotation
       End Site
       {
        OFFSET 0.000000 17.073600 -0.006000
       }
      }
     }
     JOINT RightCollar
     {
      OFFSET -2.921100 9.558500 0.000000
      CHANNELS 3 Yrotation Xrotation Zrotation
      JOINT RightShoulder
      {
       OFFSET -13.519700 0.000000 0.000000
       CHANNELS 3 Yrotation Xrotation Zrotation
       JOINT RightElbow
       {
        OFFSET 0.000000 -29.696600 0.000000
        CHANNELS 3 Yrotation Xrotation Zrotation
        JOINT RightWrist
        {
         OFFSET 0.000000 -24.004700 0.000000
         CHANNELS 3 Yrotation Xrotation Zrotation
         End Site
         {
          OFFSET 0.000000 -17.728500 0.000000
         }
        }
       }
      }
     }
     JOINT LeftCollar
     {
      OFFSET 2.921100 9.558500 0.000000
      CHANNELS 3 Yrotation Xrotation Zrotation
      JOINT LeftShoulder
      {
       OFFSET 13.519700 0.000000 0.000000
       CHANNELS 3 Yrotation Xrotation Zrotation
       JOINT LeftElbow
       {
        OFFSET 0.000000 -29.696600 0.000000
        CHANNELS 3 Yrotation Xrotation Zrotation
        JOINT LeftWrist
        {
         OFFSET 0.000000 -24.004700 0.000000
         CHANNELS 3 Yrotation Xrotation Zrotation
         End Site
         {
          OFFSET 0.000000 -17.728500 0.000000
         }
        }
       }
      }
     }
    }
   }
  }
 }
 JOINT RightHip
 {
  OFFSET -7.771700 -0.012900 -0.001300
  CHANNELS 3 Yrotation Xrotation Zrotation
  JOINT RightKnee
  {
   OFFSET 0.000000 -40.869800 0.001200
   CHANNELS 3 Yrotation Xrotation Zrotation
   JOINT RightAnkle
   {
    OFFSET 0.000000 -39.717900 0.002100
    CHANNELS 3 Yrotation Xrotation Zrotation
    JOINT RightToe
    {
     OFFSET 0.000000 -4.965400 11.033500
     CHANNELS 3 Yrotation Xrotation Zrotation
     End Site
     {
      OFFSET 0.000000 -1.423100 5.872300
     }
    }
   }
  }
 }
 JOINT LeftHip
 {
  OFFSET 7.771700 -0.012900 -0.001300
  CHANNELS 3 Yrotation Xrotation Zrotation
  JOINT LeftKnee
  {
   OFFSET 0.000000 -40.869800 0.001200
   CHANNELS 3 Yrotation Xrotation Zrotation
   JOINT LeftAnkle
   {
    OFFSET 0.000000 -39.717900 0.002100
    CHANNELS 3 Yrotation Xrotation Zrotation
    JOINT LeftToe
    {
     OFFSET 0.000000 -4.965400 11.033500
     CHANNELS 3 Yrotation Xrotation Zrotation
     End Site
     {
      OFFSET 0.000000 -1.423100 5.872300
     }
    }
   }
  }
 }
}
MOTION
Frames: 8
Frame Time: 0.008333
-1.459951 48.857156 34.665631 172.621284 -33.388739 -5.524276 5.897833 18.943146 4.799902 0.647052 2.412581 0.482047 1.071772 3.922584 0.811931 5.016741 16.345176 3.979052 -2.172364 15.707467 -0.853344 -3.677097 -6.580303 -0.854114 2.443376 -0.687704 -2.486925 4.115010 -5.654032 3.225309 51.480542 -75.902190 -67.612430 -0.681097 -5.634372 -0.266698 -9.743582 0.600925 -1.353329 3.969847 -6.548477 -0.032187 -84.253017 -73.057408 83.297709 13.318965 -7.634118 4.879300 6.921123 -48.490971 5.776447 -64.453392 80.926205 -53.385611 -1.355398 -4.132476 -0.553582 0.013708 1.395835 0.100894 -13.565396 -51.917324 16.876035 -163.866647 87.450411 -170.155504 0.991317 -9.527441 3.299674 0.010283 -0.070742 0.040132
-1.456812 48.838845 34.664590 172.666079 -33.341244 -5.623725 5.885609 18.933334 4.869846 0.643242 2.380679 0.485943 1.065478 3.913454 0.812935 4.960434 16.310058 3.996877 -2.154318 15.681124 -0.940226 -3.658069 -6.662500 -0.984743 2.457741 -0.716907 -2.504374 4.097292 -5.629171 3.261688 51.977867 -75.824147 -68.022313 -0.625239 -5.529479 -0.235531 -9.736829 0.596846 -1.360592 4.020902 -6.551183 0.031297 -84.060155 -73.046922 83.090817 13.312916 -7.661708 4.947018 6.568965 -48.393696 6.086487 -63.092068 81.006349 -52.070291 -1.502938 -4.418001 -0.806641 0.061567 1.320291 0.192919 -13.735925 -51.980700 17.032946 -163.607160 87.404201 -169.895670 1.027144 -9.523535 3.283632 0.004589 -0.065492 0.038856
-1.453856 48.829944 34.664159 172.689594 -33.316994 -5.722699 5.892939 18.927307 4.960024 0.644142 2.359330 0.483514 1.063291 3.910371 0.813229 4.917996 16.290298 4.016245 -2.148873 15.649270 -1.011846 -3.637876 -6.732944 -1.106329 2.476731 -0.726177 -2.526566 4.078235 -5.619914 3.280479 52.507774 -75.747430 -68.482693 -0.572010 -5.438205 -0.244638 -9.790936 0.536779 -1.321474 4.124660 -6.503569 0.048673 -83.911614 -73.088507 82.933787 13.283701 -7.669427 5.012676 6.235135 -48.340724 6.396122 -62.172284 81.042907 -51.215110 -1.607165 -4.539448 -1.019651 0.123843 1.163727 0.265248 -13.884331 -52.004530 17.193085 -162.982328 87.366786 -169.269275 1.068439 -9.525889 3.270111 0.003633 -0.058917 0.037640
-1.460977 48.830147 34.668026 172.694724 -33.277063 -5.770479 5.894169 18.909834 5.006637 0.642922 2.351533 0.481903 1.056188 3.898897 0.815200 4.891538 16.276022 4.030035 -2.147570 15.616204 -1.073980 -3.613322 -6.795630 -1.221905 2.489268 -0.743408 -2.549263 4.089198 -5.597600 3.280806 52.943777 -75.679721 -68.881322 -0.506743 -5.395975 -0.288287 -9.788892 0.511803 -1.326350 4.160849 -6.495784 0.095945 -83.797682 -73.124799 82.813366 13.248799 -7.664946 5.068136 6.012066 -48.373472 6.568985 -62.026062 81.035715 -51.114996 -1.552536 -4.515982 -1.165072 0.119534 0.937381 0.284619 -13.982814 -52.044647 17.290226 -162.559272 87.352923 -168.857368 1.109426 -9.506885 3.267439 -0.003466 -0.067756 0.034918
-1.477174 48.843124 34.676475 172.715902 -33.216548 -5.795683 5.860348 18.873734 5.019465 0.627817 2.366796 0.490395 1.041869 3.881928 0.819219 4.882866 16.255433 4.027854 -2.142351 15.584230 -1.133405 -3.582166 -6.856277 -1.333975 2.485808 -0.786299 -2.563268 4.079232 -5.570858 3.281336 53.370271 -75.596961 -69.224281 -0.450920 -5.386844 -0.367804 -9.759627 0.501076 -1.355944 4.166639 -6.503233 0.145316 -83.819954 -73.061167 82.875256 13.286489 -7.613144 5.057554 5.885782 -48.483768 6.600882 -62.578314 80.993933 -51.678213 -1.390604 -4.406608 -1.241612 0.076830 0.694652 0.260239 -14.070875 -52.098407 17.343399 -162.553654 87.369161 -168.872470 1.120940 -9.456633 3.266976 -0.001487 -0.092214 0.034565
-1.498776 48.874119 34.685604 172.731728 -33.166775 -5.807466 5.820589 18.843350 5.024384 0.624554 2.364605 0.492041 1.036640 3.878503 0.821918 4.883101 16.247202 4.019979 -2.143076 15.559726 -1.165568 -3.552010 -6.925987 -1.443645 2.469275 -0.827606 -2.560192 3.997443 -5.571992 3.283746 53.550907 -75.533857 -69.267903 -0.399983 -5.447979 -0.466676 -9.788398 0.470883 -1.330840 4.206177 -6.486757 0.144566 -83.924743 -72.997718 83.037814 13.286218 -7.522520 4.989221 5.876040 -48.615055 6.522550 -63.484984 80.932869 -52.547456 -1.186714 -4.279522 -1.245584 0.008479 0.493485 0.195675 -14.134505 -52.122204 17.365344 -161.977633 87.408244 -168.323647 1.161757 -9.405696 3.266552 -0.002138 -0.094859 0.025180
-1.513524 48.924175 34.696678 172.731900 -33.131262 -5.873505 5.812467 18.816009 5.097574 0.622363 2.364709 0.494409 1.033047 3.878775 0.825810 4.859942 16.247805 4.043333 -2.121270 15.542123 -1.234099 -3.528280 -7.011656 -1.551956 2.448698 -0.910790 -2.594411 4.019264 -5.517578 3.267290 53.912478 -75.515467 -69.527114 -0.409005 -5.479534 -0.604089 -9.823125 0.411475 -1.301511 4.272797 -6.451758 0.089111 -84.075411 -72.936653 83.256614 13.254951 -7.410600 4.838383 5.909404 -48.739766 6.453370 -64.419995 80.869877 -53.389498 -0.943984 -4.244945 -1.185942 -0.091257 0.431188 0.095487 -14.253690 -52.102880 17.481851 -161.214913 87.452857 -167.582587 1.207033 -9.355441 3.256533 -0.004262 -0.121266 0.027824
-1.526317 48.991658 34.705214 172.742247 -33.127692 -5.971490 5.815517 18.814165 5.200340 0.615497 2.368205 0.501897 1.036141 3.877878 0.823920 4.837430 16.258180 4.082403 -2.119392 15.498020 -1.310801 -3.489530 -7.076681 -1.661201 2.473019 -0.943400 -2.659533 3.990545 -5.519015 3.267651 54.211538 -75.535559 -69.735975 -0.419122 -5.525124 -0.723170 -9.819433 0.368144 -1.323008 4.299260 -6.439141 0.057664 -84.307228 -72.864873 83.556858 13.206987 -7.276573 4.586566 5.956299 -48.813121 6.392522 -65.208602 80.813642 -54.052070 -0.703218 -4.281351 -1.102630 -0.174470 0.466087 -0.008798 -14.392019 -52.030823 17.623994 -161.053785 87.513122 -167.442572 1.212734 -9.316313 3.249544 -0.003427 -0.141304 0.029000
